<svg width="230" height="56" viewBox="0 0 230 56" fill="none" xmlns="http://www.w3.org/2000/svg">
<g filter="url(#filter0_d_449_91)">
<path d="M8 40.9199C8.14208 33.7212 8.69644 22.1934 19.0147 23.955C22.1726 24.4942 24.3847 26.9544 26.4638 29.1785C30.1246 33.0946 33.7857 37.4734 38.5232 40.1478C42.4606 42.3705 47.3525 43.2475 51.6954 41.6467C58.0232 39.3143 61.5854 32.7846 65.6171 27.8613C68.8596 23.9017 73.2837 20.4471 78.7666 21.525C84.1801 22.5892 87.8821 28.1076 90.985 32.1536C93.9974 36.0815 96.9971 40.3327 101.545 42.6232C107.153 45.447 114.122 44.5503 118.737 40.2386C126.166 33.2996 127.703 18.5597 140.79 20.2759C144.785 20.7999 147.112 22.7025 149.261 25.999C152.669 31.228 155.503 37.3402 160.344 41.465C174.476 53.5076 180.319 25.5129 182.963 16.8011" stroke="black" stroke-width="7" stroke-linecap="round"/>
<path d="M186.289 6.12409C189.359 16.2753 191.684 26.3765 193.064 36.9117C193.104 37.219 193.395 41.8323 194.014 41.4477C195.661 40.4235 197.074 38.8364 198.677 37.7339C201.956 35.4793 205.428 33.6425 209.195 32.3475C211.65 31.5037 213.524 31.0933 216.041 30.5898C217.723 30.2534 220.416 30.267 222.037 29.5408C222.419 29.3698 221.817 28.6783 221.499 28.4069C219.14 26.3967 216.499 24.5896 213.972 22.8078C204.684 16.2584 194.59 10.7821 185.778 3.57263" stroke="black" stroke-width="7" stroke-linecap="round"/>
</g>
<defs>
<filter id="filter0_d_449_91" x="0.5" y="0.0725098" width="229.16" height="55.86" filterUnits="userSpaceOnUse" color-interpolation-filters="sRGB">
<feFlood flood-opacity="0" result="BackgroundImageFix"/>
<feColorMatrix in="SourceAlpha" type="matrix" values="0 0 0 0 0 0 0 0 0 0 0 0 0 0 0 0 0 0 127 0" result="hardAlpha"/>
<feOffset dy="4"/>
<feGaussianBlur stdDeviation="2"/>
<feComposite in2="hardAlpha" operator="out"/>
<feColorMatrix type="matrix" values="0 0 0 0 0 0 0 0 0 0 0 0 0 0 0 0 0 0 0.25 0"/>
<feBlend mode="normal" in2="BackgroundImageFix" result="effect1_dropShadow_449_91"/>
<feBlend mode="normal" in="SourceGraphic" in2="effect1_dropShadow_449_91" result="shape"/>
</filter>
</defs>
</svg>
