<svg width="46" height="46" viewBox="0 0 46 46" fill="none" xmlns="http://www.w3.org/2000/svg">
<path d="M5.75 11.9792C5.75 10.3271 6.40629 8.74268 7.57448 7.57448C8.74268 6.40629 10.3271 5.75 11.9792 5.75H34.0208C35.6729 5.75 37.2573 6.40629 38.4255 7.57448C39.5937 8.74268 40.25 10.3271 40.25 11.9792V22.8237C40.0756 22.44 39.8133 22.1028 39.4843 21.8394C39.1553 21.576 38.7689 21.3938 38.3563 21.3076C38.0323 21.2363 37.7047 21.1819 37.375 21.1447V16.2917H8.625V34.0208C8.625 35.8723 10.1277 37.375 11.9792 37.375H22.8582L22.5017 37.7315C21.8119 38.4163 21.3466 39.2946 21.1677 40.25H11.9792C10.3271 40.25 8.74268 39.5937 7.57448 38.4255C6.40629 37.2573 5.75 35.6729 5.75 34.0208V11.9792ZM30.6552 22.8716L27.37 19.5883C27.2384 19.4471 27.0797 19.3338 26.9034 19.2553C26.727 19.1767 26.5367 19.1344 26.3437 19.131C26.1507 19.1276 25.9589 19.1631 25.7799 19.2354C25.6009 19.3077 25.4383 19.4153 25.3018 19.5518C25.1653 19.6883 25.0577 19.8509 24.9854 20.0299C24.9131 20.2089 24.8776 20.4007 24.881 20.5937C24.8844 20.7867 24.9267 20.977 25.0053 21.1534C25.0838 21.3297 25.1971 21.4884 25.3383 21.62L28.5794 24.863C29.1692 24.0998 29.8687 23.43 30.6552 22.8716ZM8.625 13.4167H37.375V11.9792C37.375 11.0896 37.0216 10.2364 36.3926 9.60741C35.7636 8.97838 34.9104 8.625 34.0208 8.625H11.9792C11.0896 8.625 10.2364 8.97838 9.60741 9.60741C8.97838 10.2364 8.625 11.0896 8.625 11.9792V13.4167ZM20.6617 21.62C20.8029 21.4884 20.9162 21.3297 20.9947 21.1534C21.0733 20.977 21.1156 20.7867 21.119 20.5937C21.1224 20.4007 21.0869 20.2089 21.0146 20.0299C20.9423 19.8509 20.8347 19.6883 20.6982 19.5518C20.5617 19.4153 20.3991 19.3077 20.2201 19.2354C20.0411 19.1631 19.8493 19.1276 19.6563 19.131C19.4633 19.1344 19.273 19.1767 19.0966 19.2553C18.9203 19.3338 18.7616 19.4471 18.63 19.5883L12.88 25.3383C12.6108 25.6079 12.4596 25.9732 12.4596 26.3542C12.4596 26.7351 12.6108 27.1005 12.88 27.37L18.63 33.12C18.7616 33.2612 18.9203 33.3745 19.0966 33.4531C19.273 33.5316 19.4633 33.5739 19.6563 33.5773C19.8493 33.5807 20.0411 33.5452 20.2201 33.4729C20.3991 33.4006 20.5617 33.293 20.6982 33.1565C20.8347 33.02 20.9423 32.8574 21.0146 32.6784C21.0869 32.4994 21.1224 32.3077 21.119 32.1147C21.1156 31.9217 21.0733 31.7313 20.9947 31.555C20.9162 31.3786 20.8029 31.2199 20.6617 31.0883L15.9275 26.3542L20.6617 21.62ZM37.9481 23.1802C38.6247 23.3278 38.7914 24.1519 38.3027 24.6407L34.6514 28.29C34.1024 28.839 33.794 29.5836 33.794 30.36C33.794 31.1364 34.1024 31.881 34.6514 32.43C35.2004 32.979 35.945 33.2874 36.7214 33.2874C37.4978 33.2874 38.2424 32.979 38.7914 32.43L42.4427 28.7807C42.9314 28.2919 43.7556 28.4587 43.9032 29.1353C44.2087 30.5342 44.1238 31.9903 43.6577 33.3442C43.1915 34.6982 42.3622 35.8979 41.2602 36.8124C40.1582 37.7268 38.8261 38.3206 37.4094 38.5291C35.9927 38.7375 34.546 38.5524 33.2273 37.9941L27.9968 43.2266C27.4478 43.7756 26.7032 44.084 25.9268 44.084C25.1504 44.084 24.4057 43.7756 23.8568 43.2266C23.3078 42.6776 22.9993 41.933 22.9993 41.1566C22.9993 40.3802 23.3078 39.6356 23.8568 39.0866L29.0893 33.8541C28.5302 32.5355 28.3446 31.0885 28.5527 29.6715C28.7608 28.2545 29.3546 26.922 30.2692 25.8198C31.1838 24.7176 32.3839 23.8882 33.7383 23.4223C35.0926 22.9564 36.549 22.8739 37.9481 23.1802Z" fill="black"/>
</svg>
