<svg width="1920" height="181" viewBox="0 0 1920 181" fill="none" xmlns="http://www.w3.org/2000/svg">
<g filter="url(#filter0_d_431_415)">
<path d="M-15.4231 19.8406C-34.088 -10.666 0.0800209 5.61707 0.0800209 -14H1924.96C1914.69 -14 1932.46 28.5037 1920.95 41.5817C1909.45 54.6598 1873.95 11.6112 1846.44 11.6112C1819.24 11.6112 1775.93 38.5074 1766.92 56.8394C1753.22 84.7531 1756.42 102.068 1716.41 91.7142C1676.41 81.3608 1697.41 47.0309 1692.41 24.6892C1687.41 2.34756 1632.9 15.4256 1590.89 15.4256C1541.49 15.4256 1484.39 40.2607 1438.67 19.8406C1402.55 3.71389 1362.35 24.6892 1334.34 24.6892C1306.33 24.6892 1292.25 24.3279 1229.32 19.8406C1166.39 15.3532 1114.68 36.7485 1051.33 69.7349C1001.53 95.6651 954.219 125.36 902.326 146.537C861.996 162.996 839.744 116.236 816.739 101.523C793.735 86.81 698.216 74.1867 672.211 53.025C642.326 28.7056 640.705 15.4256 608.199 15.4256C575.692 15.4256 560.189 69.7349 550.187 80.8158C540.185 91.8968 503.178 116.236 464.171 116.236C425.163 116.236 401.158 82.4506 388.156 72.0971C375.639 62.1303 351.649 25.7791 308.64 25.7791C265.632 25.7791 251.629 62.8335 223.624 62.8335C195.618 62.8335 186.116 25.7791 155.61 25.7791C125.104 25.7791 70.5937 94.0029 59.0915 101.523C47.5892 109.043 17.0833 109.152 0.0800209 88.4447C-15.8269 69.073 0.580044 45.9967 -15.4231 19.8406Z" fill="url(#paint0_linear_431_415)"/>
</g>
<defs>
<filter id="filter0_d_431_415" x="-44.8" y="-30.8" width="1993.6" height="211.6" filterUnits="userSpaceOnUse" color-interpolation-filters="sRGB">
<feFlood flood-opacity="0" result="BackgroundImageFix"/>
<feColorMatrix in="SourceAlpha" type="matrix" values="0 0 0 0 0 0 0 0 0 0 0 0 0 0 0 0 0 0 127 0" result="hardAlpha"/>
<feOffset dy="7"/>
<feGaussianBlur stdDeviation="11.9"/>
<feComposite in2="hardAlpha" operator="out"/>
<feColorMatrix type="matrix" values="0 0 0 0 0 0 0 0 0 0 0 0 0 0 0 0 0 0 0.25 0"/>
<feBlend mode="normal" in2="BackgroundImageFix" result="effect1_dropShadow_431_415"/>
<feBlend mode="normal" in="SourceGraphic" in2="effect1_dropShadow_431_415" result="shape"/>
</filter>
<linearGradient id="paint0_linear_431_415" x1="8" y1="-2" x2="1925" y2="4.5" gradientUnits="userSpaceOnUse">
<stop stop-color="#E79711"/>
<stop offset="0.0953962" stop-color="#E09210"/>
<stop offset="0.194751" stop-color="#D68C10"/>
<stop offset="0.255901" stop-color="#D18810"/>
<stop offset="0.362017" stop-color="#C37F0E"/>
<stop offset="0.447302" stop-color="#BC7B0E"/>
<stop offset="0.524121" stop-color="#B4750D"/>
<stop offset="0.607672" stop-color="#AB700D"/>
<stop offset="0.681219" stop-color="#A26A0D"/>
<stop offset="0.734279" stop-color="#9B650C"/>
<stop offset="0.910867" stop-color="#8D5C0A"/>
<stop offset="0.990858" stop-color="#89590A"/>
</linearGradient>
</defs>
</svg>
