<svg width="1920" height="121" viewBox="0 0 1920 121" fill="none" xmlns="http://www.w3.org/2000/svg">
<path d="M1946.35 33.8406C1965.27 3.33398 1930.63 19.6171 1930.63 0H-20.9548C-10.5521 0 -28.5607 42.5037 -16.8988 55.5817C-5.23694 68.6598 38.613 86.5 66.5 86.5C94.0771 86.5 117.022 46.5 137.5 46.5C157.5 46.5 170 54 184 79.5C198 105 228.43 61.0309 233.5 38.6892C238.57 16.3476 275.154 29.4256 317.745 29.4256C367.833 29.4256 425.719 54.2607 472.081 33.8406C508.694 17.7139 549.461 38.6892 577.855 38.6892C606.249 38.6892 620.526 38.3279 684.332 33.8406C748.138 29.3532 795.272 34.0387 859.5 67.025C909.989 92.9552 929.886 73.6381 982.5 94.8158C1023.39 111.274 1069.18 100.81 1092.5 86.0971C1115.82 71.3843 1222.8 88.1867 1249.17 67.025C1279.47 42.7056 1281.11 29.4256 1314.07 29.4256C1347.03 29.4256 1372.36 55.944 1382.5 67.025C1392.64 78.106 1421.95 109.5 1461.5 109.5C1501.05 109.5 1523.98 96.4506 1537.17 86.0971C1549.86 76.1303 1574.18 39.7791 1617.79 39.7791C1661.39 39.7791 1675.59 76.8335 1703.98 76.8335C1732.38 76.8335 1742.01 39.7791 1772.94 39.7791C1803.87 39.7791 1859.14 108.003 1870.8 115.523C1882.46 123.043 1913.39 123.152 1930.63 102.445C1946.76 83.073 1930.12 59.9967 1946.35 33.8406Z" fill="url(#paint0_linear_837_1178)"/>
<defs>
<linearGradient id="paint0_linear_837_1178" x1="1922.6" y1="12" x2="-20.9992" y2="18.6816" gradientUnits="userSpaceOnUse">
<stop stop-color="#E79711"/>
<stop offset="0.0953962" stop-color="#E09210"/>
<stop offset="0.194751" stop-color="#D08913"/>
<stop offset="0.255901" stop-color="#C88412"/>
<stop offset="0.362017" stop-color="#C37F0E"/>
<stop offset="0.447302" stop-color="#BA7910"/>
<stop offset="0.524121" stop-color="#B4750D"/>
<stop offset="0.607672" stop-color="#AB700D"/>
<stop offset="0.681219" stop-color="#A26A0D"/>
<stop offset="0.734279" stop-color="#9F670C"/>
<stop offset="0.910867" stop-color="#8A5A0B"/>
<stop offset="0.990858" stop-color="#89590A"/>
</linearGradient>
</defs>
</svg>
