<svg width="1920" height="164" viewBox="0 0 1920 164" fill="none" xmlns="http://www.w3.org/2000/svg">
<path d="M-15.4231 33.8406C-34.088 3.33398 0.0800209 19.6171 0.0800209 0H1924.96C1914.69 0 1932.46 42.5037 1920.95 55.5817C1909.45 68.6598 1873.95 25.6112 1846.44 25.6112C1819.24 25.6112 1775.93 52.5074 1766.92 70.8394C1753.22 98.7531 1756.42 116.068 1716.41 105.714C1676.41 95.3608 1697.41 61.0309 1692.41 38.6892C1687.41 16.3476 1632.9 29.4256 1590.89 29.4256C1541.49 29.4256 1484.39 54.2607 1438.67 33.8406C1402.55 17.7139 1362.35 38.6892 1334.34 38.6892C1306.33 38.6892 1292.25 38.3279 1229.32 33.8406C1166.39 29.3532 1114.68 50.7485 1051.33 83.7349C1001.53 109.665 954.219 139.36 902.326 160.537C861.996 176.996 839.744 130.236 816.739 115.523C793.735 100.81 698.216 88.1867 672.211 67.025C642.326 42.7056 640.705 29.4256 608.199 29.4256C575.692 29.4256 560.189 83.7349 550.187 94.8158C540.185 105.897 503.178 130.236 464.171 130.236C425.163 130.236 401.158 96.4506 388.156 86.0971C375.639 76.1303 351.649 39.7791 308.64 39.7791C265.632 39.7791 251.629 76.8335 223.624 76.8335C195.618 76.8335 186.116 39.7791 155.61 39.7791C125.104 39.7791 70.5937 108.003 59.0915 115.523C47.5892 123.043 17.0833 123.152 0.0800209 102.445C-15.8269 83.073 0.580044 59.9967 -15.4231 33.8406Z" fill="url(#paint0_linear_837_1172)"/>
<defs>
<linearGradient id="paint0_linear_837_1172" x1="8" y1="12" x2="1925" y2="18.5" gradientUnits="userSpaceOnUse">
<stop stop-color="#E79711"/>
<stop offset="0.0953962" stop-color="#E09210"/>
<stop offset="0.194751" stop-color="#D08913"/>
<stop offset="0.255901" stop-color="#C88412"/>
<stop offset="0.362017" stop-color="#C37F0E"/>
<stop offset="0.447302" stop-color="#BA7910"/>
<stop offset="0.524121" stop-color="#B4750D"/>
<stop offset="0.607672" stop-color="#AB700D"/>
<stop offset="0.681219" stop-color="#A26A0D"/>
<stop offset="0.734279" stop-color="#9F670C"/>
<stop offset="0.910867" stop-color="#8A5A0B"/>
<stop offset="0.990858" stop-color="#89590A"/>
</linearGradient>
</defs>
</svg>
