<svg width="1920" height="186" viewBox="0 0 1920 186" fill="none" xmlns="http://www.w3.org/2000/svg">
<g filter="url(#filter0_d_837_1324)">
<path d="M1988.01 138.601C2006.88 169.043 1930.29 166.425 1930.29 186H-15.9548C-5.58057 186 -23.5399 143.586 -11.91 130.536C-0.280029 117.486 37.5829 152.072 65.3937 152.072C92.8955 152.072 134.729 133.604 143.831 115.311C157.689 87.4563 154.449 70.1785 194.901 80.51C235.353 90.8415 247.897 108.242 252.953 130.536C258.01 152.83 278.728 140.098 321.203 140.098C371.154 140.098 425.623 74.3173 471.858 94.6941C508.371 110.787 545.157 130.536 573.474 130.536C601.79 130.536 627.636 90.2163 691.267 94.6941C754.899 99.1719 800.113 113.426 864.166 80.51C914.517 54.6348 965.56 46.9359 1018.03 25.8031C1058.81 9.37955 1097.73 50.5751 1120.99 65.2567C1144.25 79.9382 1224.41 98.0003 1250.7 119.117C1280.92 143.385 1284.78 138.601 1317.65 138.601C1350.51 138.601 1363.97 102.443 1374.08 91.3853C1384.19 80.3278 1421.61 56.0407 1461.05 56.0407C1500.49 56.0407 1524.76 89.754 1537.91 100.085C1550.57 110.031 1573.45 146.305 1616.93 146.305C1660.42 146.305 1675.95 109.329 1704.27 109.329C1732.59 109.329 1745.84 138.601 1776.69 138.601C1807.53 138.601 1832.3 67.7302 1860.1 49.7895C1887.91 31.8489 1925.32 35.3777 1942.51 56.0407C1958.59 75.3713 1971.83 112.5 1988.01 138.601Z" fill="url(#paint0_linear_837_1324)"/>
</g>
<defs>
<filter id="filter0_d_837_1324" x="-31" y="0" width="2037" height="194" filterUnits="userSpaceOnUse" color-interpolation-filters="sRGB">
<feFlood flood-opacity="0" result="BackgroundImageFix"/>
<feColorMatrix in="SourceAlpha" type="matrix" values="0 0 0 0 0 0 0 0 0 0 0 0 0 0 0 0 0 0 127 0" result="hardAlpha"/>
<feOffset dy="-7"/>
<feGaussianBlur stdDeviation="7.5"/>
<feComposite in2="hardAlpha" operator="out"/>
<feColorMatrix type="matrix" values="0 0 0 0 0 0 0 0 0 0 0 0 0 0 0 0 0 0 0.2 0"/>
<feBlend mode="normal" in2="BackgroundImageFix" result="effect1_dropShadow_837_1324"/>
<feBlend mode="normal" in="SourceGraphic" in2="effect1_dropShadow_837_1324" result="shape"/>
</filter>
<linearGradient id="paint0_linear_837_1324" x1="1922.29" y1="174.025" x2="-15.9992" y2="167.366" gradientUnits="userSpaceOnUse">
<stop offset="0.00914216" stop-color="#89590A"/>
<stop offset="0.0891333" stop-color="#8A5A0B"/>
<stop offset="0.265721" stop-color="#9F670C"/>
<stop offset="0.318781" stop-color="#A26A0D"/>
<stop offset="0.392328" stop-color="#AB700D"/>
<stop offset="0.475879" stop-color="#B4750D"/>
<stop offset="0.552698" stop-color="#BA7910"/>
<stop offset="0.637983" stop-color="#C37F0E"/>
<stop offset="0.744099" stop-color="#C88412"/>
<stop offset="0.805249" stop-color="#D08913"/>
<stop offset="0.904604" stop-color="#E09210"/>
<stop offset="1" stop-color="#E79711"/>
</linearGradient>
</defs>
</svg>
