<svg width="30" height="30" viewBox="0 0 30 30" fill="none" xmlns="http://www.w3.org/2000/svg">
<path d="M27.0333 29.25L17.0583 19.275C16.2667 19.9083 15.3563 20.4097 14.3271 20.7792C13.2979 21.1486 12.2028 21.3333 11.0417 21.3333C8.16528 21.3333 5.73117 20.3369 3.73933 18.344C1.7475 16.3511 0.751056 13.917 0.750001 11.0417C0.748945 8.16633 1.74539 5.73222 3.73933 3.73933C5.73328 1.74644 8.16739 0.75 11.0417 0.75C13.9159 0.75 16.3506 1.74644 18.3456 3.73933C20.3406 5.73222 21.3365 8.16633 21.3333 11.0417C21.3333 12.2028 21.1486 13.2979 20.7792 14.3271C20.4097 15.3562 19.9083 16.2667 19.275 17.0583L29.25 27.0333L27.0333 29.25ZM11.0417 18.1667C13.0208 18.1667 14.7034 17.4742 16.0893 16.0893C17.4753 14.7044 18.1677 13.0219 18.1667 11.0417C18.1656 9.06144 17.4732 7.37942 16.0893 5.99558C14.7055 4.61175 13.0229 3.91878 11.0417 3.91667C9.06039 3.91456 7.37836 4.60753 5.99558 5.99558C4.61281 7.38364 3.91983 9.06567 3.91667 11.0417C3.9135 13.0177 4.60647 14.7002 5.99558 16.0893C7.3847 17.4784 9.06672 18.1709 11.0417 18.1667Z" fill="#FFA41B"/>
</svg>
