<svg width="836" height="1264" viewBox="0 0 836 1264" fill="none" xmlns="http://www.w3.org/2000/svg">
<g filter="url(#filter0_d_449_555)">
<path d="M166.75 7.36122C171.546 4.59241 177.454 4.59241 182.25 7.36122L233.965 37.2189C238.761 39.9877 241.715 45.1047 241.715 50.6423V110.358C241.715 115.895 238.761 121.012 233.965 123.781L182.25 153.639C177.454 156.408 171.546 156.408 166.75 153.639L115.035 123.781C110.239 121.012 107.285 115.895 107.285 110.358V50.6423C107.285 45.1047 110.239 39.9877 115.035 37.2189L166.75 7.36122Z" stroke="#1E1D1D" stroke-width="5" style="mix-blend-mode:overlay"/>
<path d="M310.75 7.36122C315.546 4.59241 321.454 4.59241 326.25 7.36122L377.965 37.2189C382.761 39.9877 385.715 45.1047 385.715 50.6423V110.358C385.715 115.895 382.761 121.012 377.965 123.781L326.25 153.639C321.454 156.408 315.546 156.408 310.75 153.639L259.035 123.781C254.239 121.012 251.285 115.895 251.285 110.358V50.6423C251.285 45.1047 254.239 39.9877 259.035 37.2189L310.75 7.36122Z" stroke="#1E1D1D" stroke-width="5" style="mix-blend-mode:overlay"/>
<path d="M238.75 131.361C243.546 128.592 249.454 128.592 254.25 131.361L305.965 161.219C310.761 163.988 313.715 169.105 313.715 174.642V234.358C313.715 239.895 310.761 245.012 305.965 247.781L254.25 277.639C249.454 280.408 243.546 280.408 238.75 277.639L187.035 247.781C182.239 245.012 179.285 239.895 179.285 234.358V174.642C179.285 169.105 182.239 163.988 187.035 161.219L238.75 131.361Z" stroke="#1E1D1D" stroke-width="5" style="mix-blend-mode:overlay"/>
<path d="M383.75 131.361C388.546 128.592 394.454 128.592 399.25 131.361L450.965 161.219C455.761 163.988 458.715 169.105 458.715 174.642V234.358C458.715 239.895 455.761 245.012 450.965 247.781L399.25 277.639C394.454 280.408 388.546 280.408 383.75 277.639L332.035 247.781C327.239 245.012 324.285 239.895 324.285 234.358V174.642C324.285 169.105 327.239 163.988 332.035 161.219L383.75 131.361Z" stroke="#1E1D1D" stroke-width="5" style="mix-blend-mode:overlay"/>
<path d="M527.75 131.361C532.546 128.592 538.454 128.592 543.25 131.361L594.965 161.219C599.761 163.988 602.715 169.105 602.715 174.642V234.358C602.715 239.895 599.761 245.012 594.965 247.781L543.25 277.639C538.454 280.408 532.546 280.408 527.75 277.639L476.035 247.781C471.239 245.012 468.285 239.895 468.285 234.358V174.642C468.285 169.105 471.239 163.988 476.035 161.219L527.75 131.361Z" stroke="#1E1D1D" stroke-width="5" style="mix-blend-mode:overlay"/>
<path d="M455.75 255.361C460.546 252.592 466.454 252.592 471.25 255.361L522.965 285.219C527.761 287.988 530.715 293.105 530.715 298.642V358.358C530.715 363.895 527.761 369.012 522.965 371.781L471.25 401.639C466.454 404.408 460.546 404.408 455.75 401.639L404.035 371.781C399.239 369.012 396.285 363.895 396.285 358.358V298.642C396.285 293.105 399.239 287.988 404.035 285.219L455.75 255.361Z" stroke="#1E1D1D" stroke-width="5" style="mix-blend-mode:overlay"/>
<path d="M166.75 255.361C171.546 252.592 177.454 252.592 182.25 255.361L233.965 285.219C238.761 287.988 241.715 293.105 241.715 298.642V358.358C241.715 363.895 238.761 369.012 233.965 371.781L182.25 401.639C177.454 404.408 171.546 404.408 166.75 401.639L115.035 371.781C110.239 369.012 107.285 363.895 107.285 358.358V298.642C107.285 293.105 110.239 287.988 115.035 285.219L166.75 255.361Z" stroke="#1E1D1D" stroke-width="5" style="mix-blend-mode:overlay"/>
<path d="M310.75 255.361C315.546 252.592 321.454 252.592 326.25 255.361L377.965 285.219C382.761 287.988 385.715 293.105 385.715 298.642V358.358C385.715 363.895 382.761 369.012 377.965 371.781L326.25 401.639C321.454 404.408 315.546 404.408 310.75 401.639L259.035 371.781C254.239 369.012 251.285 363.895 251.285 358.358V298.642C251.285 293.105 254.239 287.988 259.035 285.219L310.75 255.361Z" stroke="#1E1D1D" stroke-width="5" style="mix-blend-mode:overlay"/>
<path d="M238.75 379.361C243.546 376.592 249.454 376.592 254.25 379.361L305.965 409.219C310.761 411.988 313.715 417.105 313.715 422.642V482.358C313.715 487.895 310.761 493.012 305.965 495.781L254.25 525.639C249.454 528.408 243.546 528.408 238.75 525.639L187.035 495.781C182.239 493.012 179.285 487.895 179.285 482.358V422.642C179.285 417.105 182.239 411.988 187.035 409.219L238.75 379.361Z" stroke="#1E1D1D" stroke-width="5" style="mix-blend-mode:overlay"/>
<path d="M-51.25 131.361C-46.4543 128.592 -40.5457 128.592 -35.75 131.361L15.965 161.219C20.7608 163.988 23.715 169.105 23.715 174.642V234.358C23.715 239.895 20.7608 245.012 15.965 247.781L-35.75 277.639C-40.5457 280.408 -46.4543 280.408 -51.25 277.639L-102.965 247.781C-107.761 245.012 -110.715 239.895 -110.715 234.358V174.642C-110.715 169.105 -107.761 163.988 -102.965 161.219L-51.25 131.361Z" stroke="#1E1D1D" stroke-width="5" style="mix-blend-mode:overlay"/>
<path d="M92.75 131.361C97.5457 128.592 103.454 128.592 108.25 131.361L159.965 161.219C164.761 163.988 167.715 169.105 167.715 174.642V234.358C167.715 239.895 164.761 245.012 159.965 247.781L108.25 277.639C103.454 280.408 97.5457 280.408 92.75 277.639L41.035 247.781C36.2392 245.012 33.285 239.895 33.285 234.358V174.642C33.285 169.105 36.2392 163.988 41.035 161.219L92.75 131.361Z" stroke="#1E1D1D" stroke-width="5" style="mix-blend-mode:overlay"/>
<path d="M20.75 255.361C25.5457 252.592 31.4543 252.592 36.25 255.361L87.965 285.219C92.7608 287.988 95.715 293.105 95.715 298.642V358.358C95.715 363.895 92.7608 369.012 87.965 371.781L36.25 401.639C31.4543 404.408 25.5457 404.408 20.75 401.639L-30.965 371.781C-35.7608 369.012 -38.715 363.895 -38.715 358.358V298.642C-38.715 293.105 -35.7608 287.988 -30.965 285.219L20.75 255.361Z" stroke="#1E1D1D" stroke-width="5" style="mix-blend-mode:overlay"/>
<path d="M-51.25 379.361C-46.4543 376.592 -40.5457 376.592 -35.75 379.361L15.965 409.219C20.7608 411.988 23.715 417.105 23.715 422.642V482.358C23.715 487.895 20.7608 493.012 15.965 495.781L-35.75 525.639C-40.5457 528.408 -46.4543 528.408 -51.25 525.639L-102.965 495.781C-107.761 493.012 -110.715 487.895 -110.715 482.358V422.642C-110.715 417.105 -107.761 411.988 -102.965 409.219L-51.25 379.361Z" stroke="#1E1D1D" stroke-width="5" style="mix-blend-mode:overlay"/>
<path d="M92.75 379.361C97.5457 376.592 103.454 376.592 108.25 379.361L159.965 409.219C164.761 411.988 167.715 417.105 167.715 422.642V482.358C167.715 487.895 164.761 493.012 159.965 495.781L108.25 525.639C103.454 528.408 97.5457 528.408 92.75 525.639L41.035 495.781C36.2392 493.012 33.285 487.895 33.285 482.358V422.642C33.285 417.105 36.2392 411.988 41.035 409.219L92.75 379.361Z" stroke="#1E1D1D" stroke-width="5" style="mix-blend-mode:overlay"/>
<path d="M20.75 503.361C25.5457 500.592 31.4543 500.592 36.25 503.361L87.965 533.219C92.7608 535.988 95.715 541.105 95.715 546.642V606.358C95.715 611.895 92.7608 617.012 87.965 619.781L36.25 649.639C31.4543 652.408 25.5457 652.408 20.75 649.639L-30.965 619.781C-35.7608 617.012 -38.715 611.895 -38.715 606.358V546.642C-38.715 541.105 -35.7608 535.988 -30.965 533.219L20.75 503.361Z" stroke="#1E1D1D" stroke-width="5" style="mix-blend-mode:overlay"/>
<path d="M383.75 379.361C388.546 376.592 394.454 376.592 399.25 379.361L450.965 409.219C455.761 411.988 458.715 417.105 458.715 422.642V482.358C458.715 487.895 455.761 493.012 450.965 495.781L399.25 525.639C394.454 528.408 388.546 528.408 383.75 525.639L332.035 495.781C327.239 493.012 324.285 487.895 324.285 482.358V422.642C324.285 417.105 327.239 411.988 332.035 409.219L383.75 379.361Z" stroke="#1E1D1D" stroke-width="5" style="mix-blend-mode:overlay"/>
<path d="M527.75 379.361C532.546 376.592 538.454 376.592 543.25 379.361L594.965 409.219C599.761 411.988 602.715 417.105 602.715 422.642V482.358C602.715 487.895 599.761 493.012 594.965 495.781L543.25 525.639C538.454 528.408 532.546 528.408 527.75 525.639L476.035 495.781C471.239 493.012 468.285 487.895 468.285 482.358V422.642C468.285 417.105 471.239 411.988 476.035 409.219L527.75 379.361Z" stroke="#1E1D1D" stroke-width="5" style="mix-blend-mode:overlay"/>
<path d="M455.75 503.361C460.546 500.592 466.454 500.592 471.25 503.361L522.965 533.219C527.761 535.988 530.715 541.105 530.715 546.642V606.358C530.715 611.895 527.761 617.012 522.965 619.781L471.25 649.639C466.454 652.408 460.546 652.408 455.75 649.639L404.035 619.781C399.239 617.012 396.285 611.895 396.285 606.358V546.642C396.285 541.105 399.239 535.988 404.035 533.219L455.75 503.361Z" stroke="#1E1D1D" stroke-width="5" style="mix-blend-mode:overlay"/>
<path d="M166.75 503.361C171.546 500.592 177.454 500.592 182.25 503.361L233.965 533.219C238.761 535.988 241.715 541.105 241.715 546.642V606.358C241.715 611.895 238.761 617.012 233.965 619.781L182.25 649.639C177.454 652.408 171.546 652.408 166.75 649.639L115.035 619.781C110.239 617.012 107.285 611.895 107.285 606.358V546.642C107.285 541.105 110.239 535.988 115.035 533.219L166.75 503.361Z" stroke="#1E1D1D" stroke-width="5" style="mix-blend-mode:overlay"/>
<path d="M310.75 503.361C315.546 500.592 321.454 500.592 326.25 503.361L377.965 533.219C382.761 535.988 385.715 541.105 385.715 546.642V606.358C385.715 611.895 382.761 617.012 377.965 619.781L326.25 649.639C321.454 652.408 315.546 652.408 310.75 649.639L259.035 619.781C254.239 617.012 251.285 611.895 251.285 606.358V546.642C251.285 541.105 254.239 535.988 259.035 533.219L310.75 503.361Z" stroke="#1E1D1D" stroke-width="5" style="mix-blend-mode:overlay"/>
<path d="M238.75 627.361C243.546 624.592 249.454 624.592 254.25 627.361L305.965 657.219C310.761 659.988 313.715 665.105 313.715 670.642V730.358C313.715 735.895 310.761 741.012 305.965 743.781L254.25 773.639C249.454 776.408 243.546 776.408 238.75 773.639L187.035 743.781C182.239 741.012 179.285 735.895 179.285 730.358V670.642C179.285 665.105 182.239 659.988 187.035 657.219L238.75 627.361Z" stroke="#1E1D1D" stroke-width="5" style="mix-blend-mode:overlay"/>
</g>
<g filter="url(#filter1_d_449_555)">
<path d="M166.75 508.361C171.546 505.592 177.454 505.592 182.25 508.361L233.965 538.219C238.761 540.988 241.715 546.105 241.715 551.642V611.358C241.715 616.895 238.761 622.012 233.965 624.781L182.25 654.639C177.454 657.408 171.546 657.408 166.75 654.639L115.035 624.781C110.239 622.012 107.285 616.895 107.285 611.358V551.642C107.285 546.105 110.239 540.988 115.035 538.219L166.75 508.361Z" stroke="#1E1D1D" stroke-width="5" style="mix-blend-mode:overlay"/>
<path d="M310.75 508.361C315.546 505.592 321.454 505.592 326.25 508.361L377.965 538.219C382.761 540.988 385.715 546.105 385.715 551.642V611.358C385.715 616.895 382.761 622.012 377.965 624.781L326.25 654.639C321.454 657.408 315.546 657.408 310.75 654.639L259.035 624.781C254.239 622.012 251.285 616.895 251.285 611.358V551.642C251.285 546.105 254.239 540.988 259.035 538.219L310.75 508.361Z" stroke="#1E1D1D" stroke-width="5" style="mix-blend-mode:overlay"/>
<path d="M238.75 632.361C243.546 629.592 249.454 629.592 254.25 632.361L305.965 662.219C310.761 664.988 313.715 670.105 313.715 675.642V735.358C313.715 740.895 310.761 746.012 305.965 748.781L254.25 778.639C249.454 781.408 243.546 781.408 238.75 778.639L187.035 748.781C182.239 746.012 179.285 740.895 179.285 735.358V675.642C179.285 670.105 182.239 664.988 187.035 662.219L238.75 632.361Z" stroke="#1E1D1D" stroke-width="5" style="mix-blend-mode:overlay"/>
<path d="M383.75 632.361C388.546 629.592 394.454 629.592 399.25 632.361L450.965 662.219C455.761 664.988 458.715 670.105 458.715 675.642V735.358C458.715 740.895 455.761 746.012 450.965 748.781L399.25 778.639C394.454 781.408 388.546 781.408 383.75 778.639L332.035 748.781C327.239 746.012 324.285 740.895 324.285 735.358V675.642C324.285 670.105 327.239 664.988 332.035 662.219L383.75 632.361Z" stroke="#1E1D1D" stroke-width="5" style="mix-blend-mode:overlay"/>
<path d="M527.75 632.361C532.546 629.592 538.454 629.592 543.25 632.361L594.965 662.219C599.761 664.988 602.715 670.105 602.715 675.642V735.358C602.715 740.895 599.761 746.012 594.965 748.781L543.25 778.639C538.454 781.408 532.546 781.408 527.75 778.639L476.035 748.781C471.239 746.012 468.285 740.895 468.285 735.358V675.642C468.285 670.105 471.239 664.988 476.035 662.219L527.75 632.361Z" stroke="#1E1D1D" stroke-width="5" style="mix-blend-mode:overlay"/>
<path d="M455.75 756.361C460.546 753.592 466.454 753.592 471.25 756.361L522.965 786.219C527.761 788.988 530.715 794.105 530.715 799.642V859.358C530.715 864.895 527.761 870.012 522.965 872.781L471.25 902.639C466.454 905.408 460.546 905.408 455.75 902.639L404.035 872.781C399.239 870.012 396.285 864.895 396.285 859.358V799.642C396.285 794.105 399.239 788.988 404.035 786.219L455.75 756.361Z" stroke="#1E1D1D" stroke-width="5" style="mix-blend-mode:overlay"/>
<path d="M166.75 756.361C171.546 753.592 177.454 753.592 182.25 756.361L233.965 786.219C238.761 788.988 241.715 794.105 241.715 799.642V859.358C241.715 864.895 238.761 870.012 233.965 872.781L182.25 902.639C177.454 905.408 171.546 905.408 166.75 902.639L115.035 872.781C110.239 870.012 107.285 864.895 107.285 859.358V799.642C107.285 794.105 110.239 788.988 115.035 786.219L166.75 756.361Z" stroke="#1E1D1D" stroke-width="5" style="mix-blend-mode:overlay"/>
<path d="M310.75 756.361C315.546 753.592 321.454 753.592 326.25 756.361L377.965 786.219C382.761 788.988 385.715 794.105 385.715 799.642V859.358C385.715 864.895 382.761 870.012 377.965 872.781L326.25 902.639C321.454 905.408 315.546 905.408 310.75 902.639L259.035 872.781C254.239 870.012 251.285 864.895 251.285 859.358V799.642C251.285 794.105 254.239 788.988 259.035 786.219L310.75 756.361Z" stroke="#1E1D1D" stroke-width="5" style="mix-blend-mode:overlay"/>
<path d="M238.75 880.361C243.546 877.592 249.454 877.592 254.25 880.361L305.965 910.219C310.761 912.988 313.715 918.105 313.715 923.642V983.358C313.715 988.895 310.761 994.012 305.965 996.781L254.25 1026.64C249.454 1029.41 243.546 1029.41 238.75 1026.64L187.035 996.781C182.239 994.012 179.285 988.895 179.285 983.358V923.642C179.285 918.105 182.239 912.988 187.035 910.219L238.75 880.361Z" stroke="#1E1D1D" stroke-width="5" style="mix-blend-mode:overlay"/>
<path d="M-51.25 632.361C-46.4543 629.592 -40.5457 629.592 -35.75 632.361L15.965 662.219C20.7608 664.988 23.715 670.105 23.715 675.642V735.358C23.715 740.895 20.7608 746.012 15.965 748.781L-35.75 778.639C-40.5457 781.408 -46.4543 781.408 -51.25 778.639L-102.965 748.781C-107.761 746.012 -110.715 740.895 -110.715 735.358V675.642C-110.715 670.105 -107.761 664.988 -102.965 662.219L-51.25 632.361Z" stroke="#1E1D1D" stroke-width="5" style="mix-blend-mode:overlay"/>
<path d="M92.75 632.361C97.5457 629.592 103.454 629.592 108.25 632.361L159.965 662.219C164.761 664.988 167.715 670.105 167.715 675.642V735.358C167.715 740.895 164.761 746.012 159.965 748.781L108.25 778.639C103.454 781.408 97.5457 781.408 92.75 778.639L41.035 748.781C36.2392 746.012 33.285 740.895 33.285 735.358V675.642C33.285 670.105 36.2392 664.988 41.035 662.219L92.75 632.361Z" stroke="#1E1D1D" stroke-width="5" style="mix-blend-mode:overlay"/>
<path d="M20.75 756.361C25.5457 753.592 31.4543 753.592 36.25 756.361L87.965 786.219C92.7608 788.988 95.715 794.105 95.715 799.642V859.358C95.715 864.895 92.7608 870.012 87.965 872.781L36.25 902.639C31.4543 905.408 25.5457 905.408 20.75 902.639L-30.965 872.781C-35.7608 870.012 -38.715 864.895 -38.715 859.358V799.642C-38.715 794.105 -35.7608 788.988 -30.965 786.219L20.75 756.361Z" stroke="#1E1D1D" stroke-width="5" style="mix-blend-mode:overlay"/>
<path d="M-51.25 880.361C-46.4543 877.592 -40.5457 877.592 -35.75 880.361L15.965 910.219C20.7608 912.988 23.715 918.105 23.715 923.642V983.358C23.715 988.895 20.7608 994.012 15.965 996.781L-35.75 1026.64C-40.5457 1029.41 -46.4543 1029.41 -51.25 1026.64L-102.965 996.781C-107.761 994.012 -110.715 988.895 -110.715 983.358V923.642C-110.715 918.105 -107.761 912.988 -102.965 910.219L-51.25 880.361Z" stroke="#1E1D1D" stroke-width="5" style="mix-blend-mode:overlay"/>
<path d="M92.75 880.361C97.5457 877.592 103.454 877.592 108.25 880.361L159.965 910.219C164.761 912.988 167.715 918.105 167.715 923.642V983.358C167.715 988.895 164.761 994.012 159.965 996.781L108.25 1026.64C103.454 1029.41 97.5457 1029.41 92.75 1026.64L41.035 996.781C36.2392 994.012 33.285 988.895 33.285 983.358V923.642C33.285 918.105 36.2392 912.988 41.035 910.219L92.75 880.361Z" stroke="#1E1D1D" stroke-width="5" style="mix-blend-mode:overlay"/>
<path d="M20.75 1004.36C25.5457 1001.59 31.4543 1001.59 36.25 1004.36L87.965 1034.22C92.7608 1036.99 95.715 1042.1 95.715 1047.64V1107.36C95.715 1112.9 92.7608 1118.01 87.965 1120.78L36.25 1150.64C31.4543 1153.41 25.5457 1153.41 20.75 1150.64L-30.965 1120.78C-35.7608 1118.01 -38.715 1112.9 -38.715 1107.36V1047.64C-38.715 1042.1 -35.7608 1036.99 -30.965 1034.22L20.75 1004.36Z" stroke="#1E1D1D" stroke-width="5" style="mix-blend-mode:overlay"/>
<path d="M383.75 880.361C388.546 877.592 394.454 877.592 399.25 880.361L450.965 910.219C455.761 912.988 458.715 918.105 458.715 923.642V983.358C458.715 988.895 455.761 994.012 450.965 996.781L399.25 1026.64C394.454 1029.41 388.546 1029.41 383.75 1026.64L332.035 996.781C327.239 994.012 324.285 988.895 324.285 983.358V923.642C324.285 918.105 327.239 912.988 332.035 910.219L383.75 880.361Z" stroke="#1E1D1D" stroke-width="5" style="mix-blend-mode:overlay"/>
<path d="M527.75 880.361C532.546 877.592 538.454 877.592 543.25 880.361L594.965 910.219C599.761 912.988 602.715 918.105 602.715 923.642V983.358C602.715 988.895 599.761 994.012 594.965 996.781L543.25 1026.64C538.454 1029.41 532.546 1029.41 527.75 1026.64L476.035 996.781C471.239 994.012 468.285 988.895 468.285 983.358V923.642C468.285 918.105 471.239 912.988 476.035 910.219L527.75 880.361Z" stroke="#1E1D1D" stroke-width="5" style="mix-blend-mode:overlay"/>
<path d="M455.75 1004.36C460.546 1001.59 466.454 1001.59 471.25 1004.36L522.965 1034.22C527.761 1036.99 530.715 1042.1 530.715 1047.64V1107.36C530.715 1112.9 527.761 1118.01 522.965 1120.78L471.25 1150.64C466.454 1153.41 460.546 1153.41 455.75 1150.64L404.035 1120.78C399.239 1118.01 396.285 1112.9 396.285 1107.36V1047.64C396.285 1042.1 399.239 1036.99 404.035 1034.22L455.75 1004.36Z" stroke="#1E1D1D" stroke-width="5" style="mix-blend-mode:overlay"/>
<path d="M166.75 1004.36C171.546 1001.59 177.454 1001.59 182.25 1004.36L233.965 1034.22C238.761 1036.99 241.715 1042.1 241.715 1047.64V1107.36C241.715 1112.9 238.761 1118.01 233.965 1120.78L182.25 1150.64C177.454 1153.41 171.546 1153.41 166.75 1150.64L115.035 1120.78C110.239 1118.01 107.285 1112.9 107.285 1107.36V1047.64C107.285 1042.1 110.239 1036.99 115.035 1034.22L166.75 1004.36Z" stroke="#1E1D1D" stroke-width="5" style="mix-blend-mode:overlay"/>
<path d="M310.75 1004.36C315.546 1001.59 321.454 1001.59 326.25 1004.36L377.965 1034.22C382.761 1036.99 385.715 1042.1 385.715 1047.64V1107.36C385.715 1112.9 382.761 1118.01 377.965 1120.78L326.25 1150.64C321.454 1153.41 315.546 1153.41 310.75 1150.64L259.035 1120.78C254.239 1118.01 251.285 1112.9 251.285 1107.36V1047.64C251.285 1042.1 254.239 1036.99 259.035 1034.22L310.75 1004.36Z" stroke="#1E1D1D" stroke-width="5" style="mix-blend-mode:overlay"/>
<path d="M238.75 1128.36C243.546 1125.59 249.454 1125.59 254.25 1128.36L305.965 1158.22C310.761 1160.99 313.715 1166.1 313.715 1171.64V1231.36C313.715 1236.9 310.761 1242.01 305.965 1244.78L254.25 1274.64C249.454 1277.41 243.546 1277.41 238.75 1274.64L187.035 1244.78C182.239 1242.01 179.285 1236.9 179.285 1231.36V1171.64C179.285 1166.1 182.239 1160.99 187.035 1158.22L238.75 1128.36Z" stroke="#1E1D1D" stroke-width="5" style="mix-blend-mode:overlay"/>
</g>
<g filter="url(#filter2_f_449_555)">
<ellipse cx="280.5" cy="607" rx="255.5" ry="252" fill="#EE9B11"/>
</g>
<defs>
<filter id="filter0_d_449_555" x="-117.215" y="2.78461" width="726.43" height="783.431" filterUnits="userSpaceOnUse" color-interpolation-filters="sRGB">
<feFlood flood-opacity="0" result="BackgroundImageFix"/>
<feColorMatrix in="SourceAlpha" type="matrix" values="0 0 0 0 0 0 0 0 0 0 0 0 0 0 0 0 0 0 127 0" result="hardAlpha"/>
<feOffset dy="4"/>
<feGaussianBlur stdDeviation="2"/>
<feComposite in2="hardAlpha" operator="out"/>
<feColorMatrix type="matrix" values="0 0 0 0 0 0 0 0 0 0 0 0 0 0 0 0 0 0 0.25 0"/>
<feBlend mode="normal" in2="BackgroundImageFix" result="effect1_dropShadow_449_555"/>
<feBlend mode="normal" in="SourceGraphic" in2="effect1_dropShadow_449_555" result="shape"/>
</filter>
<filter id="filter1_d_449_555" x="-117.215" y="503.785" width="726.43" height="783.431" filterUnits="userSpaceOnUse" color-interpolation-filters="sRGB">
<feFlood flood-opacity="0" result="BackgroundImageFix"/>
<feColorMatrix in="SourceAlpha" type="matrix" values="0 0 0 0 0 0 0 0 0 0 0 0 0 0 0 0 0 0 127 0" result="hardAlpha"/>
<feOffset dy="4"/>
<feGaussianBlur stdDeviation="2"/>
<feComposite in2="hardAlpha" operator="out"/>
<feColorMatrix type="matrix" values="0 0 0 0 0 0 0 0 0 0 0 0 0 0 0 0 0 0 0.25 0"/>
<feBlend mode="normal" in2="BackgroundImageFix" result="effect1_dropShadow_449_555"/>
<feBlend mode="normal" in="SourceGraphic" in2="effect1_dropShadow_449_555" result="shape"/>
</filter>
<filter id="filter2_f_449_555" x="-275" y="55" width="1111" height="1104" filterUnits="userSpaceOnUse" color-interpolation-filters="sRGB">
<feFlood flood-opacity="0" result="BackgroundImageFix"/>
<feBlend mode="normal" in="SourceGraphic" in2="BackgroundImageFix" result="shape"/>
<feGaussianBlur stdDeviation="150" result="effect1_foregroundBlur_449_555"/>
</filter>
</defs>
</svg>
