<svg width="808" height="1019" viewBox="0 0 808 1019" fill="none" xmlns="http://www.w3.org/2000/svg">
<g filter="url(#filter0_d_449_555)">
<path d="M237.329 34.3612L272.948 54.9256C277.744 57.6944 280.698 62.8114 280.698 68.349V109.478C280.698 115.015 277.744 120.132 272.948 122.901L237.329 143.466C232.534 146.234 226.625 146.234 221.829 143.466L186.211 122.901C181.415 120.132 178.461 115.015 178.461 109.478V68.349C178.461 62.8114 181.415 57.6944 186.211 54.9256L221.829 34.3612C226.625 31.5924 232.534 31.5924 237.329 34.3612Z" stroke="#1E1D1D" stroke-width="5" style="mix-blend-mode:overlay"/>
<path d="M348.081 34.3612L383.7 54.9256C388.496 57.6944 391.45 62.8114 391.45 68.349V109.478C391.45 115.015 388.496 120.132 383.7 122.901L348.081 143.466C343.286 146.234 337.377 146.234 332.581 143.466L296.963 122.901C292.167 120.132 289.213 115.015 289.213 109.478V68.349C289.213 62.8114 292.167 57.6944 296.963 54.9256L332.581 34.3612C337.377 31.5924 343.286 31.5924 348.081 34.3612Z" stroke="#1E1D1D" stroke-width="5" style="mix-blend-mode:overlay"/>
<path d="M292.705 129.731L328.324 150.295C333.12 153.064 336.074 158.181 336.074 163.719V204.848C336.074 210.385 333.12 215.502 328.324 218.271L292.705 238.835C287.91 241.604 282.001 241.604 277.205 238.835L241.587 218.271C236.791 215.502 233.837 210.385 233.837 204.848V163.719C233.837 158.181 236.791 153.064 241.587 150.295L277.205 129.731C282.001 126.962 287.91 126.962 292.705 129.731Z" stroke="#1E1D1D" stroke-width="5" style="mix-blend-mode:overlay"/>
<path d="M404.226 129.731L439.845 150.295C444.641 153.064 447.595 158.181 447.595 163.719V204.848C447.595 210.385 444.641 215.502 439.845 218.271L404.226 238.835C399.431 241.604 393.522 241.604 388.726 238.835L353.108 218.271C348.312 215.502 345.358 210.385 345.358 204.848V163.719C345.358 158.181 348.312 153.064 353.108 150.295L388.726 129.731C393.522 126.962 399.431 126.962 404.226 129.731Z" stroke="#1E1D1D" stroke-width="5" style="mix-blend-mode:overlay"/>
<path d="M514.978 129.731L550.597 150.295C555.393 153.064 558.347 158.181 558.347 163.719V204.848C558.347 210.385 555.393 215.502 550.597 218.271L514.978 238.835C510.183 241.604 504.274 241.604 499.478 238.835L463.86 218.271C459.064 215.502 456.11 210.385 456.11 204.848V163.719C456.11 158.181 459.064 153.064 463.86 150.295L499.478 129.731C504.274 126.962 510.183 126.962 514.978 129.731Z" stroke="#1E1D1D" stroke-width="5" style="mix-blend-mode:overlay"/>
<path d="M459.602 225.101L495.221 245.665C500.017 248.434 502.971 253.551 502.971 259.089V300.217C502.971 305.755 500.017 310.872 495.221 313.641L459.602 334.205C454.807 336.974 448.898 336.974 444.102 334.205L408.484 313.641C403.688 310.872 400.734 305.755 400.734 300.217V259.089C400.734 253.551 403.688 248.434 408.484 245.665L444.102 225.101C448.898 222.332 454.807 222.332 459.602 225.101Z" stroke="#1E1D1D" stroke-width="5" style="mix-blend-mode:overlay"/>
<path d="M237.329 225.101L272.948 245.665C277.744 248.434 280.698 253.551 280.698 259.089V300.217C280.698 305.755 277.744 310.872 272.948 313.641L237.329 334.205C232.534 336.974 226.625 336.974 221.829 334.205L186.211 313.641C181.415 310.872 178.461 305.755 178.461 300.217V259.089C178.461 253.551 181.415 248.434 186.211 245.665L221.829 225.101C226.625 222.332 232.534 222.332 237.329 225.101Z" stroke="#1E1D1D" stroke-width="5" style="mix-blend-mode:overlay"/>
<path d="M348.081 225.101L383.7 245.665C388.496 248.434 391.45 253.551 391.45 259.088V300.217C391.45 305.755 388.496 310.872 383.7 313.641L348.081 334.205C343.286 336.974 337.377 336.974 332.581 334.205L296.963 313.641C292.167 310.872 289.213 305.755 289.213 300.217V259.088C289.213 253.551 292.167 248.434 296.963 245.665L332.581 225.101C337.377 222.332 343.286 222.332 348.081 225.101Z" stroke="#1E1D1D" stroke-width="5" style="mix-blend-mode:overlay"/>
<path d="M292.705 320.47L328.324 341.035C333.12 343.804 336.074 348.921 336.074 354.458V395.587C336.074 401.125 333.12 406.242 328.324 409.01L292.705 429.575C287.91 432.344 282.001 432.344 277.205 429.575L241.587 409.01C236.791 406.242 233.837 401.125 233.837 395.587V354.458C233.837 348.921 236.791 343.804 241.587 341.035L277.205 320.47C282.001 317.702 287.91 317.702 292.705 320.47Z" stroke="#1E1D1D" stroke-width="5" style="mix-blend-mode:overlay"/>
<path d="M69.6634 129.731L105.282 150.295C110.078 153.064 113.032 158.181 113.032 163.719V204.848C113.032 210.385 110.078 215.502 105.282 218.271L69.6634 238.835C64.8677 241.604 58.9591 241.604 54.1634 238.835L18.5448 218.271C13.7491 215.502 10.7948 210.385 10.7948 204.848V163.719C10.7948 158.181 13.7491 153.064 18.5448 150.295L54.1634 129.731C58.9591 126.962 64.8677 126.962 69.6634 129.731Z" stroke="#1E1D1D" stroke-width="5" style="mix-blend-mode:overlay"/>
<path d="M180.415 129.731L216.034 150.295C220.83 153.064 223.784 158.181 223.784 163.719V204.848C223.784 210.385 220.83 215.502 216.034 218.271L180.415 238.835C175.62 241.604 169.711 241.604 164.915 238.835L129.297 218.271C124.501 215.502 121.547 210.385 121.547 204.848V163.719C121.547 158.181 124.501 153.064 129.297 150.295L164.915 129.731C169.711 126.962 175.62 126.962 180.415 129.731Z" stroke="#1E1D1D" stroke-width="5" style="mix-blend-mode:overlay"/>
<path d="M125.039 225.101L160.658 245.665C165.454 248.434 168.408 253.551 168.408 259.089V300.217C168.408 305.755 165.454 310.872 160.658 313.641L125.039 334.205C120.244 336.974 114.335 336.974 109.539 334.205L73.9208 313.641C69.1251 310.872 66.1708 305.755 66.1708 300.217V259.089C66.1708 253.551 69.1251 248.434 73.9208 245.665L109.539 225.101C114.335 222.332 120.244 222.332 125.039 225.101Z" stroke="#1E1D1D" stroke-width="5" style="mix-blend-mode:overlay"/>
<path d="M69.6634 320.47L105.282 341.035C110.078 343.804 113.032 348.921 113.032 354.458V395.587C113.032 401.125 110.078 406.242 105.282 409.01L69.6634 429.575C64.8677 432.344 58.9591 432.344 54.1634 429.575L18.5448 409.01C13.7491 406.242 10.7948 401.125 10.7948 395.587V354.458C10.7948 348.921 13.7491 343.804 18.5448 341.035L54.1634 320.47C58.9591 317.702 64.8677 317.702 69.6634 320.47Z" stroke="#1E1D1D" stroke-width="5" style="mix-blend-mode:overlay"/>
<path d="M180.415 320.47L216.034 341.035C220.83 343.804 223.784 348.921 223.784 354.458V395.587C223.784 401.125 220.83 406.242 216.034 409.01L180.415 429.575C175.62 432.344 169.711 432.344 164.915 429.575L129.297 409.01C124.501 406.242 121.547 401.125 121.547 395.587V354.458C121.547 348.921 124.501 343.804 129.297 341.035L164.915 320.47C169.711 317.702 175.62 317.702 180.415 320.47Z" stroke="#1E1D1D" stroke-width="5" style="mix-blend-mode:overlay"/>
<path d="M125.039 415.84L160.658 436.405C165.454 439.173 168.408 444.29 168.408 449.828V490.957C168.408 496.494 165.454 501.611 160.658 504.38L125.039 524.945C120.244 527.713 114.335 527.713 109.539 524.945L73.9208 504.38C69.1251 501.611 66.1708 496.494 66.1708 490.957V449.828C66.1708 444.29 69.1251 439.173 73.9208 436.405L109.539 415.84C114.335 413.071 120.244 413.071 125.039 415.84Z" stroke="#1E1D1D" stroke-width="5" style="mix-blend-mode:overlay"/>
<path d="M404.226 320.47L439.845 341.035C444.641 343.804 447.595 348.921 447.595 354.458V395.587C447.595 401.125 444.641 406.242 439.845 409.01L404.226 429.575C399.431 432.344 393.522 432.344 388.726 429.575L353.108 409.01C348.312 406.242 345.358 401.125 345.358 395.587V354.458C345.358 348.921 348.312 343.804 353.108 341.035L388.726 320.47C393.522 317.702 399.431 317.702 404.226 320.47Z" stroke="#1E1D1D" stroke-width="5" style="mix-blend-mode:overlay"/>
<path d="M514.978 320.47L550.597 341.035C555.393 343.804 558.347 348.921 558.347 354.458V395.587C558.347 401.125 555.393 406.242 550.597 409.01L514.978 429.575C510.183 432.344 504.274 432.344 499.478 429.575L463.86 409.01C459.064 406.242 456.11 401.125 456.11 395.587V354.458C456.11 348.921 459.064 343.804 463.86 341.035L499.478 320.47C504.274 317.702 510.183 317.702 514.978 320.47Z" stroke="#1E1D1D" stroke-width="5" style="mix-blend-mode:overlay"/>
<path d="M459.602 415.84L495.221 436.405C500.017 439.173 502.971 444.29 502.971 449.828V490.957C502.971 496.494 500.017 501.611 495.221 504.38L459.602 524.945C454.807 527.713 448.898 527.713 444.102 524.945L408.484 504.38C403.688 501.611 400.734 496.494 400.734 490.957V449.828C400.734 444.29 403.688 439.173 408.484 436.405L444.102 415.84C448.898 413.071 454.807 413.071 459.602 415.84Z" stroke="#1E1D1D" stroke-width="5" style="mix-blend-mode:overlay"/>
<path d="M237.329 415.84L272.948 436.405C277.744 439.173 280.698 444.29 280.698 449.828V490.957C280.698 496.494 277.744 501.611 272.948 504.38L237.329 524.945C232.534 527.713 226.625 527.713 221.829 524.945L186.211 504.38C181.415 501.611 178.461 496.494 178.461 490.957V449.828C178.461 444.29 181.415 439.173 186.211 436.405L221.829 415.84C226.625 413.071 232.534 413.071 237.329 415.84Z" stroke="#1E1D1D" stroke-width="5" style="mix-blend-mode:overlay"/>
<path d="M348.081 415.84L383.7 436.405C388.496 439.173 391.45 444.29 391.45 449.828V490.957C391.45 496.494 388.496 501.611 383.7 504.38L348.081 524.945C343.286 527.713 337.377 527.713 332.581 524.945L296.963 504.38C292.167 501.611 289.213 496.494 289.213 490.957V449.828C289.213 444.29 292.167 439.173 296.963 436.405L332.581 415.84C337.377 413.071 343.286 413.071 348.081 415.84Z" stroke="#1E1D1D" stroke-width="5" style="mix-blend-mode:overlay"/>
<path d="M292.705 511.21L328.324 531.774C333.12 534.543 336.074 539.66 336.074 545.198V586.326C336.074 591.864 333.12 596.981 328.324 599.75L292.705 620.314C287.91 623.083 282.001 623.083 277.205 620.314L241.587 599.75C236.791 596.981 233.837 591.864 233.837 586.326V545.198C233.837 539.66 236.791 534.543 241.587 531.774L277.205 511.21C282.001 508.441 287.91 508.441 292.705 511.21Z" stroke="#1E1D1D" stroke-width="5" style="mix-blend-mode:overlay"/>
</g>
<g filter="url(#filter1_d_449_555)">
<path d="M237.329 419.686L272.948 440.25C277.744 443.019 280.698 448.136 280.698 453.673V494.802C280.698 500.34 277.744 505.457 272.948 508.226L237.329 528.79C232.534 531.559 226.625 531.559 221.829 528.79L186.211 508.226C181.415 505.457 178.461 500.34 178.461 494.802V453.673C178.461 448.136 181.415 443.019 186.211 440.25L221.829 419.686C226.625 416.917 232.534 416.917 237.329 419.686Z" stroke="#1E1D1D" stroke-width="5" style="mix-blend-mode:overlay"/>
<path d="M348.081 419.686L383.7 440.25C388.496 443.019 391.45 448.136 391.45 453.673V494.802C391.45 500.34 388.496 505.457 383.7 508.226L348.081 528.79C343.286 531.559 337.377 531.559 332.581 528.79L296.963 508.226C292.167 505.457 289.213 500.34 289.213 494.802V453.673C289.213 448.136 292.167 443.019 296.963 440.25L332.581 419.686C337.377 416.917 343.286 416.917 348.081 419.686Z" stroke="#1E1D1D" stroke-width="5" style="mix-blend-mode:overlay"/>
<path d="M292.705 515.055L328.324 535.62C333.12 538.389 336.074 543.506 336.074 549.043V590.172C336.074 595.71 333.12 600.827 328.324 603.595L292.705 624.16C287.91 626.929 282.001 626.929 277.205 624.16L241.587 603.595C236.791 600.827 233.837 595.71 233.837 590.172V549.043C233.837 543.506 236.791 538.389 241.587 535.62L277.205 515.055C282.001 512.287 287.91 512.287 292.705 515.055Z" stroke="#1E1D1D" stroke-width="5" style="mix-blend-mode:overlay"/>
<path d="M404.226 515.055L439.845 535.62C444.641 538.389 447.595 543.506 447.595 549.043V590.172C447.595 595.71 444.641 600.827 439.845 603.595L404.226 624.16C399.431 626.929 393.522 626.929 388.726 624.16L353.108 603.595C348.312 600.827 345.358 595.71 345.358 590.172V549.043C345.358 543.506 348.312 538.389 353.108 535.62L388.726 515.055C393.522 512.287 399.431 512.287 404.226 515.055Z" stroke="#1E1D1D" stroke-width="5" style="mix-blend-mode:overlay"/>
<path d="M514.978 515.055L550.597 535.62C555.393 538.389 558.347 543.506 558.347 549.043V590.172C558.347 595.71 555.393 600.827 550.597 603.595L514.978 624.16C510.183 626.929 504.274 626.929 499.478 624.16L463.86 603.595C459.064 600.827 456.11 595.71 456.11 590.172V549.043C456.11 543.506 459.064 538.389 463.86 535.62L499.478 515.055C504.274 512.287 510.183 512.287 514.978 515.055Z" stroke="#1E1D1D" stroke-width="5" style="mix-blend-mode:overlay"/>
<path d="M459.602 610.425L495.221 630.99C500.017 633.758 502.971 638.875 502.971 644.413V685.542C502.971 691.079 500.017 696.196 495.221 698.965L459.602 719.53C454.807 722.298 448.898 722.298 444.102 719.53L408.484 698.965C403.688 696.196 400.734 691.079 400.734 685.542V644.413C400.734 638.875 403.688 633.758 408.484 630.99L444.102 610.425C448.898 607.656 454.807 607.656 459.602 610.425Z" stroke="#1E1D1D" stroke-width="5" style="mix-blend-mode:overlay"/>
<path d="M237.329 610.425L272.948 630.99C277.744 633.758 280.698 638.875 280.698 644.413V685.542C280.698 691.079 277.744 696.196 272.948 698.965L237.329 719.53C232.534 722.298 226.625 722.298 221.829 719.53L186.211 698.965C181.415 696.196 178.461 691.079 178.461 685.542V644.413C178.461 638.875 181.415 633.758 186.211 630.99L221.829 610.425C226.625 607.656 232.534 607.656 237.329 610.425Z" stroke="#1E1D1D" stroke-width="5" style="mix-blend-mode:overlay"/>
<path d="M348.081 610.425L383.7 630.99C388.496 633.758 391.45 638.875 391.45 644.413V685.542C391.45 691.079 388.496 696.196 383.7 698.965L348.081 719.53C343.286 722.298 337.377 722.298 332.581 719.53L296.963 698.965C292.167 696.196 289.213 691.079 289.213 685.542V644.413C289.213 638.875 292.167 633.758 296.963 630.99L332.581 610.425C337.377 607.656 343.286 607.656 348.081 610.425Z" stroke="#1E1D1D" stroke-width="5" style="mix-blend-mode:overlay"/>
<path d="M292.705 705.795L328.324 726.359C333.12 729.128 336.074 734.245 336.074 739.783V780.912C336.074 786.449 333.12 791.566 328.324 794.335L292.705 814.899C287.91 817.668 282.001 817.668 277.205 814.899L241.587 794.335C236.791 791.566 233.837 786.449 233.837 780.912V739.783C233.837 734.245 236.791 729.128 241.587 726.359L277.205 705.795C282.001 703.026 287.91 703.026 292.705 705.795Z" stroke="#1E1D1D" stroke-width="5" style="mix-blend-mode:overlay"/>
<path d="M69.6634 515.055L105.282 535.62C110.078 538.389 113.032 543.506 113.032 549.043V590.172C113.032 595.71 110.078 600.827 105.282 603.595L69.6634 624.16C64.8677 626.929 58.9591 626.929 54.1634 624.16L18.5448 603.595C13.7491 600.827 10.7948 595.71 10.7948 590.172V549.043C10.7948 543.506 13.7491 538.389 18.5448 535.62L54.1634 515.055C58.9591 512.287 64.8677 512.287 69.6634 515.055Z" stroke="#1E1D1D" stroke-width="5" style="mix-blend-mode:overlay"/>
<path d="M180.415 515.055L216.034 535.62C220.83 538.389 223.784 543.506 223.784 549.043V590.172C223.784 595.71 220.83 600.827 216.034 603.595L180.415 624.16C175.62 626.929 169.711 626.929 164.915 624.16L129.297 603.595C124.501 600.827 121.547 595.71 121.547 590.172V549.043C121.547 543.506 124.501 538.389 129.297 535.62L164.915 515.055C169.711 512.287 175.62 512.287 180.415 515.055Z" stroke="#1E1D1D" stroke-width="5" style="mix-blend-mode:overlay"/>
<path d="M125.039 610.425L160.658 630.99C165.454 633.758 168.408 638.875 168.408 644.413V685.542C168.408 691.079 165.454 696.196 160.658 698.965L125.039 719.53C120.244 722.298 114.335 722.298 109.539 719.53L73.9208 698.965C69.1251 696.196 66.1708 691.079 66.1708 685.542V644.413C66.1708 638.875 69.1251 633.758 73.9208 630.99L109.539 610.425C114.335 607.656 120.244 607.656 125.039 610.425Z" stroke="#1E1D1D" stroke-width="5" style="mix-blend-mode:overlay"/>
<path d="M69.6634 705.795L105.282 726.359C110.078 729.128 113.032 734.245 113.032 739.783V780.912C113.032 786.449 110.078 791.566 105.282 794.335L69.6634 814.899C64.8677 817.668 58.9591 817.668 54.1634 814.899L18.5448 794.335C13.7491 791.566 10.7948 786.449 10.7948 780.912V739.783C10.7948 734.245 13.7491 729.128 18.5448 726.359L54.1634 705.795C58.9591 703.026 64.8677 703.026 69.6634 705.795Z" stroke="#1E1D1D" stroke-width="5" style="mix-blend-mode:overlay"/>
<path d="M180.415 705.795L216.034 726.359C220.83 729.128 223.784 734.245 223.784 739.783V780.912C223.784 786.449 220.83 791.566 216.034 794.335L180.415 814.899C175.62 817.668 169.711 817.668 164.915 814.899L129.297 794.335C124.501 791.566 121.547 786.449 121.547 780.912V739.783C121.547 734.245 124.501 729.128 129.297 726.359L164.915 705.795C169.711 703.026 175.62 703.026 180.415 705.795Z" stroke="#1E1D1D" stroke-width="5" style="mix-blend-mode:overlay"/>
<path d="M125.039 801.165L160.658 821.729C165.454 824.498 168.408 829.615 168.408 835.152V876.281C168.408 881.819 165.454 886.936 160.658 889.705L125.039 910.269C120.244 913.038 114.335 913.038 109.539 910.269L73.9208 889.705C69.1251 886.936 66.1708 881.819 66.1708 876.281V835.152C66.1708 829.615 69.1251 824.498 73.9208 821.729L109.539 801.165C114.335 798.396 120.244 798.396 125.039 801.165Z" stroke="#1E1D1D" stroke-width="5" style="mix-blend-mode:overlay"/>
<path d="M404.226 705.795L439.845 726.359C444.641 729.128 447.595 734.245 447.595 739.783V780.912C447.595 786.449 444.641 791.566 439.845 794.335L404.226 814.899C399.431 817.668 393.522 817.668 388.726 814.899L353.108 794.335C348.312 791.566 345.358 786.449 345.358 780.912V739.783C345.358 734.245 348.312 729.128 353.108 726.359L388.726 705.795C393.522 703.026 399.431 703.026 404.226 705.795Z" stroke="#1E1D1D" stroke-width="5" style="mix-blend-mode:overlay"/>
<path d="M514.978 705.795L550.597 726.359C555.393 729.128 558.347 734.245 558.347 739.783V780.912C558.347 786.449 555.393 791.566 550.597 794.335L514.978 814.899C510.183 817.668 504.274 817.668 499.478 814.899L463.86 794.335C459.064 791.566 456.11 786.449 456.11 780.912V739.783C456.11 734.245 459.064 729.128 463.86 726.359L499.478 705.795C504.274 703.026 510.183 703.026 514.978 705.795Z" stroke="#1E1D1D" stroke-width="5" style="mix-blend-mode:overlay"/>
<path d="M459.602 801.165L495.221 821.729C500.017 824.498 502.971 829.615 502.971 835.152V876.281C502.971 881.819 500.017 886.936 495.221 889.705L459.602 910.269C454.807 913.038 448.898 913.038 444.102 910.269L408.484 889.705C403.688 886.936 400.734 881.819 400.734 876.281V835.152C400.734 829.615 403.688 824.498 408.484 821.729L444.102 801.165C448.898 798.396 454.807 798.396 459.602 801.165Z" stroke="#1E1D1D" stroke-width="5" style="mix-blend-mode:overlay"/>
<path d="M237.329 801.165L272.948 821.729C277.744 824.498 280.698 829.615 280.698 835.152V876.281C280.698 881.819 277.744 886.936 272.948 889.705L237.329 910.269C232.534 913.038 226.625 913.038 221.829 910.269L186.211 889.705C181.415 886.936 178.461 881.819 178.461 876.281V835.152C178.461 829.615 181.415 824.498 186.211 821.729L221.829 801.165C226.625 798.396 232.534 798.396 237.329 801.165Z" stroke="#1E1D1D" stroke-width="5" style="mix-blend-mode:overlay"/>
<path d="M348.081 801.165L383.7 821.729C388.496 824.498 391.45 829.615 391.45 835.152V876.281C391.45 881.819 388.496 886.936 383.7 889.705L348.081 910.269C343.286 913.038 337.377 913.038 332.581 910.269L296.963 889.705C292.167 886.936 289.213 881.819 289.213 876.281V835.152C289.213 829.615 292.167 824.498 296.963 821.729L332.581 801.165C337.377 798.396 343.286 798.396 348.081 801.165Z" stroke="#1E1D1D" stroke-width="5" style="mix-blend-mode:overlay"/>
<path d="M292.705 896.534L328.324 917.099C333.12 919.868 336.074 924.985 336.074 930.522V971.651C336.074 977.189 333.12 982.306 328.324 985.074L292.705 1005.64C287.91 1008.41 282.001 1008.41 277.205 1005.64L241.587 985.074C236.791 982.306 233.837 977.189 233.837 971.651V930.522C233.837 924.985 236.791 919.868 241.587 917.099L277.205 896.534C282.001 893.766 287.91 893.766 292.705 896.534Z" stroke="#1E1D1D" stroke-width="5" style="mix-blend-mode:overlay"/>
</g>
<g filter="url(#filter2_f_449_555)">
<ellipse cx="311.105" cy="493.85" rx="196.508" ry="193.816" fill="#EE9B11"/>
</g>
<defs>
<filter id="filter0_d_449_555" x="4.29492" y="29.7846" width="560.552" height="603.106" filterUnits="userSpaceOnUse" color-interpolation-filters="sRGB">
<feFlood flood-opacity="0" result="BackgroundImageFix"/>
<feColorMatrix in="SourceAlpha" type="matrix" values="0 0 0 0 0 0 0 0 0 0 0 0 0 0 0 0 0 0 127 0" result="hardAlpha"/>
<feOffset dy="4"/>
<feGaussianBlur stdDeviation="2"/>
<feComposite in2="hardAlpha" operator="out"/>
<feColorMatrix type="matrix" values="0 0 0 0 0 0 0 0 0 0 0 0 0 0 0 0 0 0 0.25 0"/>
<feBlend mode="normal" in2="BackgroundImageFix" result="effect1_dropShadow_449_555"/>
<feBlend mode="normal" in="SourceGraphic" in2="effect1_dropShadow_449_555" result="shape"/>
</filter>
<filter id="filter1_d_449_555" x="4.29492" y="415.109" width="560.552" height="603.106" filterUnits="userSpaceOnUse" color-interpolation-filters="sRGB">
<feFlood flood-opacity="0" result="BackgroundImageFix"/>
<feColorMatrix in="SourceAlpha" type="matrix" values="0 0 0 0 0 0 0 0 0 0 0 0 0 0 0 0 0 0 127 0" result="hardAlpha"/>
<feOffset dy="4"/>
<feGaussianBlur stdDeviation="2"/>
<feComposite in2="hardAlpha" operator="out"/>
<feColorMatrix type="matrix" values="0 0 0 0 0 0 0 0 0 0 0 0 0 0 0 0 0 0 0.25 0"/>
<feBlend mode="normal" in2="BackgroundImageFix" result="effect1_dropShadow_449_555"/>
<feBlend mode="normal" in="SourceGraphic" in2="effect1_dropShadow_449_555" result="shape"/>
</filter>
<filter id="filter2_f_449_555" x="-185.402" y="0.0343018" width="993.016" height="987.632" filterUnits="userSpaceOnUse" color-interpolation-filters="sRGB">
<feFlood flood-opacity="0" result="BackgroundImageFix"/>
<feBlend mode="normal" in="SourceGraphic" in2="BackgroundImageFix" result="shape"/>
<feGaussianBlur stdDeviation="150" result="effect1_foregroundBlur_449_555"/>
</filter>
</defs>
</svg>
