<svg width="417" height="594" viewBox="0 0 417 594" fill="none" xmlns="http://www.w3.org/2000/svg">
<g filter="url(#filter0_d_455_1895)">
<path d="M434.074 296.542L445.001 333.843C446.558 339.157 445.162 344.898 441.338 348.904L414.498 377.017C410.674 381.023 405.004 382.684 399.623 381.375L361.856 372.188C356.475 370.879 352.202 366.799 350.645 361.485L339.718 324.184C338.161 318.87 339.557 313.128 343.381 309.123L370.221 281.009C374.045 277.004 379.715 275.343 385.096 276.652L422.863 285.839C428.243 287.148 432.517 291.228 434.074 296.542Z" stroke="#1E1D1D" stroke-width="5" style="mix-blend-mode:overlay"/>
<path d="M511.257 370.227L522.184 407.528C523.741 412.842 522.344 418.583 518.52 422.589L491.681 450.702C487.857 454.708 482.186 456.369 476.806 455.06L439.039 445.873C433.658 444.564 429.384 440.484 427.828 435.17L416.9 397.869C415.343 392.555 416.74 386.814 420.564 382.808L447.404 354.695C451.227 350.689 456.898 349.028 462.278 350.337L500.045 359.524C505.426 360.833 509.7 364.913 511.257 370.227Z" stroke="#1E1D1D" stroke-width="5" style="mix-blend-mode:overlay"/>
<path d="M409.215 399.848L420.142 437.148C421.699 442.462 420.302 448.204 416.478 452.209L389.639 480.323C385.815 484.328 380.144 485.989 374.764 484.68L336.997 475.493C331.616 474.184 327.342 470.104 325.786 464.79L314.858 427.489C313.301 422.175 314.698 416.434 318.522 412.429L345.362 384.315C349.185 380.31 354.856 378.648 360.236 379.957L398.003 389.144C403.384 390.453 407.658 394.533 409.215 399.848Z" stroke="#1E1D1D" stroke-width="5" style="mix-blend-mode:overlay"/>
<path d="M380.679 118.529L391.607 155.829C393.164 161.144 391.767 166.885 387.943 170.89L361.103 199.004C357.28 203.009 351.609 204.67 346.229 203.361L308.462 194.174C303.081 192.865 298.807 188.785 297.25 183.471L286.323 146.17C284.766 140.856 286.163 135.115 289.987 131.11L316.826 102.996C320.65 98.9907 326.321 97.3296 331.701 98.6385L369.468 107.825C374.849 109.134 379.123 113.214 380.679 118.529Z" stroke="#1E1D1D" stroke-width="5" style="mix-blend-mode:overlay"/>
<path d="M457.862 192.214L468.789 229.514C470.346 234.829 468.95 240.57 465.126 244.575L438.286 272.689C434.462 276.694 428.792 278.355 423.411 277.046L385.644 267.859C380.264 266.55 375.99 262.47 374.433 257.156L363.506 219.856C361.949 214.541 363.346 208.8 367.169 204.795L394.009 176.681C397.833 172.676 403.503 171.015 408.884 172.324L446.651 181.511C452.032 182.819 456.305 186.899 457.862 192.214Z" stroke="#1E1D1D" stroke-width="5" style="mix-blend-mode:overlay"/>
<path d="M355.82 221.834L366.747 259.135C368.304 264.449 366.908 270.19 363.084 274.196L336.244 302.309C332.42 306.315 326.75 307.976 321.369 306.667L283.602 297.48C278.222 296.171 273.948 292.091 272.391 286.777L261.464 249.476C259.907 244.162 261.304 238.42 265.127 234.415L291.967 206.301C295.791 202.296 301.461 200.635 306.842 201.944L344.609 211.131C349.99 212.44 354.263 216.52 355.82 221.834Z" stroke="#1E1D1D" stroke-width="5" style="mix-blend-mode:overlay"/>
<path d="M253.777 251.454L264.704 288.755C266.261 294.069 264.865 299.81 261.041 303.816L234.201 331.929C230.377 335.935 224.707 337.596 219.326 336.287L181.559 327.1C176.179 325.791 171.905 321.711 170.348 316.397L159.421 279.096C157.864 273.782 159.261 268.041 163.084 264.035L189.924 235.922C193.748 231.916 199.418 230.255 204.799 231.564L242.566 240.751C247.947 242.06 252.22 246.14 253.777 251.454Z" stroke="#1E1D1D" stroke-width="5" style="mix-blend-mode:overlay"/>
<path d="M330.96 325.139L341.887 362.44C343.444 367.754 342.047 373.495 338.223 377.501L311.384 405.614C307.56 409.62 301.89 411.281 296.509 409.972L258.742 400.785C253.361 399.476 249.088 395.396 247.531 390.082L236.603 352.781C235.047 347.467 236.443 341.726 240.267 337.72L267.107 309.607C270.931 305.601 276.601 303.94 281.982 305.249L319.749 314.436C325.129 315.745 329.403 319.825 330.96 325.139Z" stroke="#1E1D1D" stroke-width="5" style="mix-blend-mode:overlay"/>
<path d="M228.918 354.76L239.845 392.06C241.402 397.375 240.005 403.116 236.181 407.121L209.342 435.235C205.518 439.24 199.848 440.901 194.467 439.592L156.7 430.405C151.319 429.096 147.046 425.016 145.489 419.702L134.561 382.401C133.005 377.087 134.401 371.346 138.225 367.341L165.065 339.227C168.889 335.222 174.559 333.561 179.94 334.869L217.707 344.056C223.087 345.365 227.361 349.445 228.918 354.76Z" stroke="#1E1D1D" stroke-width="5" style="mix-blend-mode:overlay"/>
<path d="M486.933 474.045L497.861 511.345C499.417 516.66 498.021 522.401 494.197 526.406L467.357 554.52C463.533 558.525 457.863 560.186 452.482 558.877L414.716 549.69C409.335 548.382 405.061 544.302 403.504 538.987L392.577 501.687C391.02 496.372 392.417 490.631 396.241 486.626L423.08 458.512C426.904 454.507 432.575 452.846 437.955 454.155L475.722 463.342C481.103 464.65 485.377 468.731 486.933 474.045Z" stroke="#1E1D1D" stroke-width="5" style="mix-blend-mode:overlay"/>
<path d="M462.074 577.35L473.001 614.651C474.558 619.965 473.162 625.706 469.338 629.712L442.498 657.825C438.674 661.831 433.004 663.492 427.623 662.183L389.856 652.996C384.475 651.687 380.202 647.607 378.645 642.293L367.718 604.992C366.161 599.678 367.557 593.937 371.381 589.931L398.221 561.818C402.045 557.812 407.715 556.151 413.096 557.46L450.863 566.647C456.243 567.956 460.517 572.036 462.074 577.35Z" stroke="#1E1D1D" stroke-width="5" style="mix-blend-mode:overlay"/>
<path d="M307.172 429.468L318.099 466.768C319.656 472.083 318.259 477.824 314.435 481.829L287.596 509.943C283.772 513.948 278.101 515.609 272.721 514.3L234.954 505.113C229.573 503.804 225.299 499.724 223.743 494.41L212.815 457.109C211.259 451.795 212.655 446.054 216.479 442.049L243.319 413.935C247.143 409.93 252.813 408.269 258.193 409.577L295.96 418.764C301.341 420.073 305.615 424.153 307.172 429.468Z" stroke="#1E1D1D" stroke-width="5" style="mix-blend-mode:overlay"/>
<path d="M384.354 503.153L395.282 540.453C396.838 545.768 395.442 551.509 391.618 555.514L364.778 583.628C360.954 587.633 355.284 589.294 349.903 587.985L312.136 578.798C306.756 577.489 302.482 573.409 300.925 568.095L289.998 530.795C288.441 525.48 289.838 519.739 293.662 515.734L320.501 487.62C324.325 483.615 329.995 481.954 335.376 483.262L373.143 492.45C378.524 493.758 382.797 497.838 384.354 503.153Z" stroke="#1E1D1D" stroke-width="5" style="mix-blend-mode:overlay"/>
<path d="M282.312 532.773L293.24 570.074C294.796 575.388 293.4 581.129 289.576 585.135L262.736 613.248C258.912 617.254 253.242 618.915 247.861 617.606L210.094 608.419C204.714 607.11 200.44 603.03 198.883 597.716L187.956 560.415C186.399 555.101 187.796 549.359 191.62 545.354L218.459 517.24C222.283 513.235 227.953 511.574 233.334 512.883L271.101 522.07C276.482 523.379 280.755 527.459 282.312 532.773Z" stroke="#1E1D1D" stroke-width="5" style="mix-blend-mode:overlay"/>
</g>
<defs>
<filter id="filter0_d_455_1895" x="127.436" y="95.6987" width="581.636" height="577.424" filterUnits="userSpaceOnUse" color-interpolation-filters="sRGB">
<feFlood flood-opacity="0" result="BackgroundImageFix"/>
<feColorMatrix in="SourceAlpha" type="matrix" values="0 0 0 0 0 0 0 0 0 0 0 0 0 0 0 0 0 0 127 0" result="hardAlpha"/>
<feOffset dy="4"/>
<feGaussianBlur stdDeviation="2"/>
<feComposite in2="hardAlpha" operator="out"/>
<feColorMatrix type="matrix" values="0 0 0 0 0 0 0 0 0 0 0 0 0 0 0 0 0 0 0.25 0"/>
<feBlend mode="normal" in2="BackgroundImageFix" result="effect1_dropShadow_455_1895"/>
<feBlend mode="normal" in="SourceGraphic" in2="effect1_dropShadow_455_1895" result="shape"/>
</filter>
</defs>
</svg>
