<svg width="83" height="83" viewBox="0 0 83 83" fill="none" xmlns="http://www.w3.org/2000/svg">
<path d="M41.7385 46.5802L24.7927 63.526C24.1587 64.1601 23.3517 64.4771 22.3719 64.4771C21.392 64.4771 20.5851 64.1601 19.951 63.526C19.317 62.892 19 62.0851 19 61.1052C19 60.1253 19.317 59.3184 19.951 58.6844L36.8969 41.7385L19.951 24.7927C19.317 24.1587 19 23.3517 19 22.3719C19 21.392 19.317 20.5851 19.951 19.951C20.5851 19.317 21.392 19 22.3719 19C23.3517 19 24.1587 19.317 24.7927 19.951L41.7385 36.8969L58.6844 19.951C59.3184 19.317 60.1253 19 61.1052 19C62.0851 19 62.892 19.317 63.526 19.951C64.1601 20.5851 64.4771 21.392 64.4771 22.3719C64.4771 23.3517 64.1601 24.1587 63.526 24.7927L46.5802 41.7385L63.526 58.6844C64.1601 59.3184 64.4771 60.1253 64.4771 61.1052C64.4771 62.0851 64.1601 62.892 63.526 63.526C62.892 64.1601 62.0851 64.4771 61.1052 64.4771C60.1253 64.4771 59.3184 64.1601 58.6844 63.526L41.7385 46.5802Z" fill="#341088"/>
</svg>
