<svg width="43" height="43" viewBox="0 0 43 43" fill="none" xmlns="http://www.w3.org/2000/svg">
<path d="M32.3217 9.01882L26.0962 0.290527L3.20525 18.5774L1.93625 18.5637V18.5833H0.9375V42.0833H42.0625V18.5833H40.1786L36.4303 7.61861L32.3217 9.01882ZM36.0406 18.5833H16.4025L31.0292 13.5974L34.0098 12.6437L36.0406 18.5833ZM28.4521 10.3387L13.3533 15.4852L25.3109 5.93249L28.4521 10.3387ZM4.85417 34.5809V26.0818C5.68093 25.79 6.4319 25.3169 7.05202 24.6971C7.67213 24.0773 8.14568 23.3266 8.43792 22.5H34.5621C34.8541 23.327 35.3275 24.078 35.9476 24.6982C36.5678 25.3183 37.3189 25.7917 38.1458 26.0837V34.5829C37.3189 34.8749 36.5678 35.3483 35.9476 35.9685C35.3275 36.5886 34.8541 37.3397 34.5621 38.1667H8.44183C8.14844 37.3396 7.6741 36.5885 7.05341 35.9682C6.43273 35.3478 5.68137 34.8739 4.85417 34.5809Z" fill="#FFA41B"/>
</svg>
