<svg width="25" height="36" viewBox="0 0 25 36" fill="none" xmlns="http://www.w3.org/2000/svg">
<path d="M1 7.12765C1 4.98297 1 3.91063 1.41783 3.09106C1.78534 2.37047 2.37174 1.78461 3.093 1.41745C3.91333 1 4.98667 1 7.13333 1H17.8667C20.0133 1 21.0867 1 21.907 1.41745C22.6283 1.78461 23.2147 2.37047 23.5822 3.09106C24 3.91063 24 4.98297 24 7.12765V32.6053C24 33.5359 24 34.0012 23.8064 34.2559C23.7228 34.3667 23.616 34.458 23.4936 34.5234C23.3711 34.5889 23.2359 34.627 23.0972 34.6351C22.7772 34.6542 22.39 34.3957 21.6157 33.8806L12.5 27.8085L3.38433 33.8787C2.61 34.3957 2.22283 34.6542 1.90083 34.6351C1.76252 34.6267 1.62766 34.5885 1.50556 34.523C1.38346 34.4576 1.27702 34.3664 1.19358 34.2559C1 34.0012 1 33.5359 1 32.6053V7.12765Z" stroke="#341088" stroke-width="2" stroke-linecap="round" stroke-linejoin="round"/>
</svg>
