<svg width="35" height="36" viewBox="0 0 35 36" fill="none" xmlns="http://www.w3.org/2000/svg">
<path d="M19.7986 25.9064L12.3465 21.7259C11.6312 22.4563 10.7216 22.9524 9.73255 23.1519C8.74347 23.3513 7.71913 23.2451 6.78866 22.8466C5.8582 22.4481 5.06326 21.7751 4.50407 20.9126C3.94489 20.0501 3.64648 19.0366 3.64648 17.9999C3.64648 16.9632 3.94489 15.9497 4.50407 15.0872C5.06326 14.2247 5.8582 13.5518 6.78866 13.1533C7.71913 12.7548 8.74347 12.6485 9.73255 12.848C10.7216 13.0474 11.6312 13.5436 12.3465 14.2739L19.7986 10.0934C19.543 8.86002 19.7276 7.57321 20.3186 6.4683C20.9096 5.36339 21.8676 4.51422 23.0173 4.07607C24.1669 3.63792 25.4316 3.64008 26.5798 4.08215C27.7281 4.52422 28.6833 5.37666 29.2707 6.48358C29.8582 7.5905 30.0386 8.87793 29.7791 10.1105C29.5195 11.343 28.8373 12.4382 27.8572 13.1959C26.8771 13.9535 25.6645 14.323 24.4413 14.2367C23.2181 14.1504 22.066 13.6141 21.1957 12.7259L13.7436 16.9064C13.8926 17.6269 13.8926 18.3715 13.7436 19.0919L21.1957 23.2739C22.066 22.3857 23.2181 21.8494 24.4413 21.7631C25.6645 21.6768 26.8771 22.0463 27.8572 22.804C28.8373 23.5616 29.5195 24.6569 29.7791 25.8894C30.0386 27.1219 29.8582 28.4093 29.2707 29.5163C28.6833 30.6232 27.7281 31.4756 26.5798 31.9177C25.4316 32.3598 24.1669 32.3619 23.0173 31.9238C21.8676 31.4856 20.9096 30.6365 20.3186 29.5315C19.7276 28.4266 19.543 27.1398 19.7986 25.9064Z" fill="#341088"/>
</svg>
