<svg width="40" height="44" viewBox="0 0 40 44" fill="none" xmlns="http://www.w3.org/2000/svg">
<path d="M39.8356 26.9464C39.8356 23.8432 37.9706 21.2373 35.3994 20.3421C35.9064 19.3475 36.2142 18.2137 36.2142 17.0002C36.2142 13.897 34.3492 11.2912 31.778 10.396C32.285 9.40139 32.5928 8.26753 32.5928 7.0541C32.5928 3.21489 29.75 0.0917969 26.2553 0.0917969H13.5803C10.0857 0.0917969 7.24284 3.21489 7.24284 7.0541C7.24284 8.26753 7.55066 9.40139 8.05766 10.396C5.50456 11.2912 3.62142 13.897 3.62142 17.0002C3.62142 18.2137 3.92924 19.3475 4.43624 20.3421C1.88314 21.2373 0 23.8432 0 26.9464C0 29.4528 1.21318 31.6012 3.02389 32.8345C2.26339 33.9684 1.81071 35.3807 1.81071 36.8925C1.81071 40.7317 4.65353 43.8548 8.1482 43.8548H31.6874C35.1821 43.8548 38.0249 40.7317 38.0249 36.8925C38.0249 35.3807 37.5723 33.9684 36.8117 32.8345C38.6225 31.6012 39.8356 29.4528 39.8356 26.9464ZM13.5803 4.07026H26.2553C27.7582 4.07026 28.9714 5.40304 28.9714 7.0541C28.9714 8.70516 27.7582 10.0379 26.2553 10.0379H13.5803C12.0774 10.0379 10.8643 8.70516 10.8643 7.0541C10.8643 5.40304 12.0774 4.07026 13.5803 4.07026ZM9.95891 14.0164H29.8767C31.3796 14.0164 32.5928 15.3492 32.5928 17.0002C32.5928 18.6513 31.3796 19.9841 29.8767 19.9841H9.95891C8.45602 19.9841 7.24284 18.6513 7.24284 17.0002C7.24284 15.3492 8.45602 14.0164 9.95891 14.0164ZM5.43213 36.8925C5.43213 35.2415 6.64531 33.9087 8.1482 33.9087H14.4857V39.8764H8.1482C6.64531 39.8764 5.43213 38.5436 5.43213 36.8925ZM31.6874 39.8764H25.35V33.9087H31.6874C33.1903 33.9087 34.4035 35.2415 34.4035 36.8925C34.4035 38.5436 33.1903 39.8764 31.6874 39.8764ZM33.4981 29.9302H25.024C24.2635 27.6227 22.2717 25.9518 19.9178 25.9518C17.5639 25.9518 15.5721 27.6227 14.8116 29.9302H6.33749C4.8346 29.9302 3.62142 28.5975 3.62142 26.9464C3.62142 25.2953 4.8346 23.9625 6.33749 23.9625H33.4981C35.001 23.9625 36.2142 25.2953 36.2142 26.9464C36.2142 28.5975 35.001 29.9302 33.4981 29.9302Z" fill="#341088"/>
</svg>
